<svg xmlns="http://www.w3.org/2000/svg" viewBox="0 0 32 32"><defs><style>.cls-1{isolation:isolate;}.cls-2{fill:#ff8c50;mix-blend-mode:multiply;}</style></defs><g class="cls-1"><g id="Layer_4" data-name="Layer 4"><path class="cls-2" d="M6.39,6.25H18.61a2.94,2.94,0,0,1,2.94,2.93v7.2a2.94,2.94,0,0,1-2.94,2.93h-6.5a.16.16,0,0,0-.09,0L6.77,23.18a.14.14,0,0,1-.23-.11V19.46a.15.15,0,0,0-.15-.15h0a2.93,2.93,0,0,1-2.93-2.93V9.18A2.93,2.93,0,0,1,6.39,6.25Z"/><path class="cls-2" d="M25.88,10.37H14.8A2.66,2.66,0,0,0,12.14,13v6.52a2.66,2.66,0,0,0,2.66,2.66h5.9a.11.11,0,0,1,.08,0l4.76,3.49a.13.13,0,0,0,.21-.11V22.35a.13.13,0,0,1,.13-.14h0a2.66,2.66,0,0,0,2.66-2.66V13A2.66,2.66,0,0,0,25.88,10.37Z"/></g></g></svg>