<svg xmlns="http://www.w3.org/2000/svg" viewBox="0 0 32 32"><defs><style>.cls-1{isolation:isolate;}.cls-2{mix-blend-mode:hue;}.cls-3{fill:#ff8c50;}.cls-4,.cls-6{mix-blend-mode:multiply;}.cls-5{fill:#eb8a22;}.cls-6{fill:none;stroke:#eb8a22;stroke-linecap:round;stroke-linejoin:round;stroke-width:2px;}</style></defs><g class="cls-1"><g id="Layer_4" data-name="Layer 4"><g class="cls-2"><path class="cls-3" d="M9,12.09h2.27a.78.78,0,0,1,.78.78V23a.78.78,0,0,1-.78.78H9a3.4,3.4,0,0,1-3.4-3.4V15.49A3.4,3.4,0,0,1,9,12.09Z"/></g><g class="cls-2"><path class="cls-3" d="M23.25,12.09h2.27a.78.78,0,0,1,.78.78V23a.78.78,0,0,1-.78.78H23.25a3.4,3.4,0,0,1-3.4-3.4V15.49A3.4,3.4,0,0,1,23.25,12.09Z" transform="translate(46.15 35.89) rotate(-180)"/></g><g class="cls-4"><path class="cls-5" d="M23.08,18.13a1,1,0,0,1-1-1v-4.7a5.22,5.22,0,0,0-5.37-5H15.29a5.22,5.22,0,0,0-5.37,5v4.7a1,1,0,0,1-2,0v-4.7a7.21,7.21,0,0,1,7.37-7h1.42a7.21,7.21,0,0,1,7.37,7v4.7A1,1,0,0,1,23.08,18.13Z"/></g><path class="cls-6" d="M23.08,22.49v2.16a1.28,1.28,0,0,1-1.28,1.28H17.92"/></g></g></svg>