<svg xmlns="http://www.w3.org/2000/svg" viewBox="0 0 32 32"><defs><style>.cls-1{isolation:isolate;}.cls-2{fill:#b347f9;mix-blend-mode:multiply;}.cls-3{fill:#ff8c50;mix-blend-mode:hue;}</style></defs><g class="cls-1"><g id="Layer_4" data-name="Layer 4"><path class="cls-2" d="M14.2,4.5a1.26,1.26,0,0,0-1.76,0L10.9,6.05a.15.15,0,0,0,0,.23,3.27,3.27,0,0,1-4.62,4.61.16.16,0,0,0-.23,0L4.61,12.33A1.3,1.3,0,0,0,4.5,14.2l4.24,4.25a2.5,2.5,0,0,0,3.53,0l6.18-6.18a2.5,2.5,0,0,0,0-3.53Z"/><path class="cls-3" d="M9.89,19.59,17.8,27.5a1.26,1.26,0,0,0,1.76,0L21.1,26a.15.15,0,0,0,0-.23,3.27,3.27,0,0,1,4.62-4.61.16.16,0,0,0,.23,0l1.44-1.43a1.3,1.3,0,0,0,.11-1.87L19.59,9.89a2.49,2.49,0,0,0-3.53,0L9.89,16.06A2.49,2.49,0,0,0,9.89,19.59Z"/></g></g></svg>