<svg xmlns="http://www.w3.org/2000/svg" viewBox="0 0 32 32"><defs><style>.cls-1{isolation:isolate;}.cls-2{fill:#1e90ff;mix-blend-mode:multiply;}.cls-3{fill:#ef0c5f;mix-blend-mode:hue;}</style></defs><g class="cls-1"><g id="Layer_4" data-name="Layer 4"><path class="cls-2" d="M16.64,25.48,13,22.9a.54.54,0,0,0-.62,0L8.66,25.48A1.82,1.82,0,0,1,5.79,24V9.37A3.19,3.19,0,0,1,9,6.18h7.36a3.19,3.19,0,0,1,3.18,3.19V24A1.82,1.82,0,0,1,16.64,25.48Z"/><path class="cls-3" d="M20.52,9.91l1.2,2.43a1.11,1.11,0,0,0,.84.61l2.68.39a1.13,1.13,0,0,1,.63,1.92l-1.94,1.89a1.1,1.1,0,0,0-.32,1l.45,2.67A1.12,1.12,0,0,1,22.43,22L20,20.75a1.09,1.09,0,0,0-1.05,0L16.59,22A1.13,1.13,0,0,1,15,20.82l.46-2.67a1.13,1.13,0,0,0-.32-1l-1.94-1.89a1.13,1.13,0,0,1,.62-1.92L16.45,13a1.11,1.11,0,0,0,.85-.61l1.2-2.43A1.12,1.12,0,0,1,20.52,9.91Z"/></g></g></svg>