<svg xmlns="http://www.w3.org/2000/svg" viewBox="0 0 32 32"><defs><style>.cls-1{isolation:isolate;}.cls-2{fill:#58c134;}.cls-3{fill:#5de62d;mix-blend-mode:multiply;}.cls-4{fill:#fdb800;mix-blend-mode:hue;}</style></defs><g class="cls-1"><g id="Layer_4" data-name="Layer 4"><rect class="cls-2" x="4.72" y="7.58" width="22.56" height="9.36" rx="2.39"/><rect class="cls-3" x="6.05" y="11.98" width="19.9" height="14.52" rx="3"/><path class="cls-4" d="M19.5,5a1.39,1.39,0,0,0-2,0L16,6.5,14.48,5a1.4,1.4,0,0,0-2,2l.86.87a1.19,1.19,0,0,0,.38.25V25.58a.92.92,0,0,0,.91.92h2.7a.92.92,0,0,0,.91-.92V8.09a1.19,1.19,0,0,0,.38-.25L19.5,7A1.39,1.39,0,0,0,19.5,5Z"/></g></g></svg>