<svg xmlns="http://www.w3.org/2000/svg" viewBox="0 0 32 32"><defs><style>.cls-1{isolation:isolate;}.cls-2{fill:#1e90ff;}.cls-3{mix-blend-mode:hue;}.cls-4{fill:#a235ea;}</style></defs><g class="cls-1"><g id="Layer_4" data-name="Layer 4"><path class="cls-2" d="M22.46,16.32v7.32A1.35,1.35,0,0,1,21.11,25H6.88a1.36,1.36,0,0,1-1.36-1.36V16.32a2.15,2.15,0,0,1,.76-1.65l6.29-5.43A2.18,2.18,0,0,1,14,8.71a2.22,2.22,0,0,1,1.43.53l6.29,5.43A2.17,2.17,0,0,1,22.46,16.32Z"/><g class="cls-3"><path class="cls-4" d="M26,19.07v5A.92.92,0,0,1,25,25H15.31a.92.92,0,0,1-.93-.93v-5a1.48,1.48,0,0,1,.52-1.13l4.3-3.71a1.49,1.49,0,0,1,1.94,0l4.3,3.71A1.48,1.48,0,0,1,26,19.07Z"/></g></g></g></svg>