<svg id="Layer_3" data-name="Layer 3" xmlns="http://www.w3.org/2000/svg" viewBox="0 0 32 32"><defs><style>.cls-1{fill:#747987;}</style></defs><title>Notification</title><path class="cls-1" d="M6.07,25.58h6.82a3.13,3.13,0,0,0,6.22,0h6.82a1,1,0,0,0,.92-.61,1,1,0,0,0-.2-1.09c-1-1-2.64-3.14-2.66-4.38V14.33a8.43,8.43,0,0,0-7-8.55V4.63a1,1,0,1,0-2,0V5.78a8.43,8.43,0,0,0-7,8.55v5.16c0,1.25-1.64,3.35-2.66,4.39A1,1,0,0,0,5.15,25,1,1,0,0,0,6.07,25.58Zm9.93.79a1.12,1.12,0,0,1-1.07-.79h2.14A1.12,1.12,0,0,1,16,26.37ZM10,19.5V14.33c0-3.66,2.69-6.63,6-6.63s6,3,6,6.63v5.19a7.88,7.88,0,0,0,1.78,4.06H8.23A7.87,7.87,0,0,0,10,19.5Z"/></svg>