<svg xmlns="http://www.w3.org/2000/svg" viewBox="0 0 32 32"><defs><style>.cls-1{isolation:isolate;}.cls-2,.cls-3{fill:#f81773;}.cls-3,.cls-4{mix-blend-mode:multiply;}.cls-4{fill:#c1c1c1;}</style></defs><g class="cls-1"><g id="Layer_4" data-name="Layer 4"><path class="cls-2" d="M27,14.1c0,4.2-5.44,9.42-5.44,9.42s-5.43-6-5.43-9.42a5.42,5.42,0,0,1,1.24-3.46l.74-.73a5.43,5.43,0,0,1,6.91,0l.2.18.37.37.17.18A5.42,5.42,0,0,1,27,14.1Z"/><path class="cls-3" d="M20.24,13.21c0,5.88-7.61,13.2-7.61,13.2S5,18,5,13.21A7.59,7.59,0,0,1,6.75,8.36l1-1a7.62,7.62,0,0,1,9.69,0l.29.25.51.52.24.26A7.58,7.58,0,0,1,20.24,13.21Z"/><circle class="cls-4" cx="12.63" cy="13.31" r="2.78"/></g></g></svg>