<svg xmlns="http://www.w3.org/2000/svg" viewBox="0 0 32 32"><defs><style>.cls-1{isolation:isolate;}.cls-2{fill:#ff8c50;}.cls-3{fill:none;stroke:#6a522a;stroke-linecap:round;stroke-miterlimit:10;stroke-width:3px;opacity:0.49;mix-blend-mode:multiply;}</style></defs><g class="cls-1"><g id="Layer_4" data-name="Layer 4"><path class="cls-2" d="M18.87,9.45l8,8a2.14,2.14,0,0,1,0,3l-6.39,6.39a2.15,2.15,0,0,1-3,0l-8-8a2.46,2.46,0,0,1-.7-1.43l-.34-2.87a2.41,2.41,0,0,1,.69-2L12.56,9.1a2.43,2.43,0,0,1,2-.7l2.87.35A2.46,2.46,0,0,1,18.87,9.45Z"/><line class="cls-3" x1="8.32" y1="8.32" x2="12.8" y2="12.8"/></g></g></svg>