<svg xmlns="http://www.w3.org/2000/svg" viewBox="0 0 32 32"><defs><style>.cls-1{isolation:isolate;}.cls-2{fill:#f9a950;}.cls-3{opacity:0.49;mix-blend-mode:multiply;}.cls-4{fill:#dd8320;}</style></defs><g class="cls-1"><g id="Layer_4" data-name="Layer 4"><path class="cls-2" d="M20,8.26l1.21-1.12a1,1,0,0,1,1.31,0l1.17,1a1,1,0,0,1,.21,1.25L23,10.9a1.19,1.19,0,0,0,1.08,1.78l1.64-.08a1,1,0,0,1,1,.81L27,14.92a1,1,0,0,1-.65,1.1l-1.69.6a1.18,1.18,0,0,0-.32,2.05l1.31,1A1,1,0,0,1,25.94,21l-.77,1.32a1,1,0,0,1-1.2.44l-1.68-.63a1.17,1.17,0,0,0-1.56,1.36l.36,1.61a1,1,0,0,1-.62,1.15L19,26.72a1,1,0,0,1-1.2-.44L17,24.71a1.18,1.18,0,0,0-2.08.05l-.75,1.46a1,1,0,0,1-1.22.48l-1.44-.53a1,1,0,0,1-.63-1.11l.33-1.76A1.18,1.18,0,0,0,9.54,22L8,22.63a1,1,0,0,1-1.24-.41L6,20.89a1,1,0,0,1,.23-1.26l1.38-1.14a1.17,1.17,0,0,0-.4-2L5.66,16A1,1,0,0,1,5,14.85l.27-1.5a1,1,0,0,1,1-.82l1.79,0a1.18,1.18,0,0,0,1-1.82L8.13,9.35a1,1,0,0,1,.2-1.3l1.17-1a1,1,0,0,1,1.28,0l1.36,1.17a1.18,1.18,0,0,0,1.94-.75l.2-1.63a1,1,0,0,1,1-.87H16.8a1,1,0,0,1,1,.83l.3,1.77A1.17,1.17,0,0,0,20,8.26Z"/><g class="cls-3"><path class="cls-4" d="M16,21.23a5.18,5.18,0,1,1,5.18-5.18A5.18,5.18,0,0,1,16,21.23Zm0-7.61a2.44,2.44,0,1,0,2.43,2.43A2.43,2.43,0,0,0,16,13.62Z"/></g></g></g></svg>