<svg xmlns="http://www.w3.org/2000/svg" viewBox="0 0 32 32"><defs><style>.cls-1{isolation:isolate;}.cls-2{fill:#3cb81d;}.cls-3{fill:#4bce24;}.cls-4{fill:#ff8c50;}.cls-5{fill:#e78821;}.cls-5,.cls-6{mix-blend-mode:multiply;}.cls-6{fill:#6a522a;}</style></defs><g class="cls-1"><g id="Layer_4" data-name="Layer 4"><path class="cls-2" d="M9.17,12.47,19.75,8.08a2.55,2.55,0,0,1,3,1.07l2.1,3.42L10.55,14.46Z"/><path class="cls-3" d="M6.34,11.54,16.92,7.15a2.55,2.55,0,0,1,3,1.07l2.1,3.42L7.71,13.53Z"/><rect class="cls-4" x="4.27" y="11.19" width="21.73" height="13.81" rx="3.05"/><path class="cls-5" d="M20.22,15h6.18a1.34,1.34,0,0,1,1.34,1.34V20a1.34,1.34,0,0,1-1.34,1.34H20.22A3.19,3.19,0,0,1,17,18.15v0A3.19,3.19,0,0,1,20.22,15Z"/><circle class="cls-6" cx="20.21" cy="18.15" r="1.23"/></g></g></svg>